<?xml version="1.0" standalone="no"?>
<!DOCTYPE svg PUBLIC "-//W3C//DTD SVG 20010904//EN"
 "http://www.w3.org/TR/2001/REC-SVG-20010904/DTD/svg10.dtd">
<svg version="1.0" xmlns="http://www.w3.org/2000/svg"
 width="732.000000pt" height="771.000000pt" viewBox="0 0 732.000000 771.000000"
 preserveAspectRatio="xMidYMid meet">

<g transform="translate(0.000000,771.000000) scale(0.100000,-0.100000)"
fill="#000000" stroke="none">
<path d="M3190 7623 c-1208 -69 -2244 -611 -2748 -1436 -363 -595 -397 -1293
-94 -1905 423 -853 1389 -1448 2579 -1589 210 -24 727 -24 938 1 866 102 1602
432 2120 951 402 402 627 862 664 1362 37 478 -111 949 -433 1383 -97 131
-374 406 -516 511 -574 428 -1250 664 -2058 719 -143 9 -321 11 -452 3z m521
-73 c505 -40 983 -168 1414 -381 317 -156 552 -319 783 -544 220 -213 360
-399 475 -630 132 -265 193 -502 204 -795 16 -460 -148 -920 -470 -1320 -89
-110 -287 -305 -405 -398 -800 -634 -1986 -889 -3122 -671 -704 136 -1326 456
-1760 905 -188 195 -318 378 -425 599 -135 279 -195 532 -195 830 0 647 334
1252 944 1710 402 301 909 522 1433 625 145 28 407 65 518 73 120 8 482 6 606
-3z"/>
<path d="M2819 7332 c-56 -57 -106 -122 -94 -122 3 0 23 14 44 31 20 18 57 39
82 48 40 16 44 20 42 50 -2 55 -16 54 -74 -7z"/>
<path d="M3033 7383 c-15 -6 -17 -45 -3 -59 5 -5 17 -58 26 -118 l17 -107 -26
-27 -27 -27 0 31 c0 16 -6 38 -14 49 -7 11 -15 44 -18 73 -5 56 -29 92 -60 92
-25 0 -23 -13 10 -51 30 -36 50 -114 51 -196 1 -60 17 -69 58 -31 13 12 25 19
28 17 2 -3 7 -32 10 -65 11 -104 27 -194 35 -194 4 0 13 7 20 15 11 13 11 41
1 148 -7 73 -13 142 -14 154 -1 12 11 35 27 52 27 28 28 33 16 56 l-14 26 -14
-26 c-24 -48 -37 -24 -37 69 0 80 -2 89 -24 107 -24 20 -28 21 -48 12z"/>
<path d="M3665 7348 c-3 -7 -11 -31 -18 -53 -12 -34 -20 -42 -50 -49 -44 -11
-46 -21 -9 -44 20 -12 26 -24 24 -42 -4 -30 -113 -144 -154 -161 -30 -12 -32
-26 -6 -42 24 -16 44 -3 94 63 26 33 48 59 50 58 1 -2 -4 -41 -12 -88 -7 -47
-14 -86 -14 -87 0 -2 -19 -3 -42 -4 -33 0 -38 -2 -23 -8 11 -5 33 -21 49 -35
l28 -27 22 20 c16 15 25 18 33 10 15 -15 45 -4 105 42 l53 40 22 -26 c12 -13
26 -32 31 -42 9 -15 16 -15 68 -4 33 7 70 19 83 26 22 11 21 12 -28 19 -42 6
-61 15 -94 45 l-41 39 27 39 c34 49 34 71 2 79 -21 5 -24 11 -19 28 16 51 46
96 79 116 l35 22 -20 26 c-22 27 -59 57 -64 51 -2 -2 -9 -24 -17 -49 -13 -40
-20 -48 -79 -78 -80 -41 -88 -48 -61 -57 13 -4 33 1 51 11 16 10 32 16 35 13
3 -3 -2 -25 -10 -49 -20 -56 -19 -60 10 -60 30 0 31 -7 7 -38 -16 -21 -20 -22
-31 -8 -19 22 -45 21 -36 -1 23 -58 18 -79 -25 -115 -87 -75 -108 -57 -85 74
25 148 42 199 83 240 35 37 35 38 16 53 -10 8 -15 15 -10 15 12 0 -13 29 -36
41 -13 7 -20 6 -23 -3z"/>
<path d="M2300 7217 c-14 -7 -39 -34 -56 -60 -18 -27 -36 -49 -40 -49 -5 0
-19 24 -30 54 -18 44 -26 54 -50 56 -18 3 -33 -2 -41 -14 -18 -24 -18 -25 22
-75 49 -62 60 -98 41 -143 -21 -50 -40 -54 -72 -17 -14 17 -30 31 -35 31 -12
0 -12 -92 1 -124 11 -29 53 -44 74 -27 7 6 19 31 26 56 11 40 35 74 44 64 5
-6 63 -187 76 -238 17 -67 78 -117 94 -76 3 8 -3 34 -13 57 -10 24 -36 83 -56
131 l-38 89 47 42 c51 47 55 60 26 76 -31 17 -26 65 10 102 23 22 29 35 24 54
-7 27 -18 29 -54 11z m-29 -144 c2 -54 -1 -66 -17 -83 -14 -13 -17 -13 -30 4
-18 26 -18 66 2 94 24 35 44 28 45 -15z"/>
<path d="M2844 7222 c-6 -4 -16 -21 -23 -39 -7 -17 -34 -49 -59 -70 -92 -77
-102 -93 -55 -93 19 0 42 14 74 46 l47 47 7 -57 c4 -30 4 -63 1 -72 -6 -16 -8
-15 -20 1 -13 18 -15 17 -30 -14 -11 -21 -15 -43 -11 -62 8 -36 18 -37 43 -1
l21 27 21 -23 c30 -31 42 -19 34 36 -5 40 -1 56 25 106 35 65 36 87 1 32 -12
-20 -26 -36 -31 -36 -14 0 -10 78 6 109 13 26 13 30 -3 43 -26 23 -37 27 -48
20z"/>
<path d="M4569 7173 c-12 -32 -41 -83 -64 -113 l-41 -55 -68 -3 c-46 -2 -82 2
-109 13 -22 9 -42 13 -45 10 -4 -3 4 -27 18 -52 23 -43 25 -45 59 -39 20 3 47
9 60 12 21 6 22 5 12 -13 -18 -35 -79 -57 -158 -57 -71 -1 -72 -1 -50 -18 44
-35 134 -35 201 -2 17 9 51 36 76 60 45 43 45 43 138 50 50 4 92 10 92 14 0
22 -32 32 -80 25 -30 -4 -50 -3 -50 3 0 14 69 102 80 102 17 0 11 52 -11 86
-11 19 -24 34 -29 34 -4 0 -18 -26 -31 -57z"/>
<path d="M5187 7027 c6 -37 -13 -117 -27 -117 -6 0 -10 13 -10 28 0 16 -7 37
-15 48 -13 18 -14 17 -15 -17 0 -19 -7 -59 -16 -88 -18 -61 -13 -74 15 -40 21
26 20 27 37 -28 7 -23 23 -13 43 26 22 43 57 59 80 36 12 -12 11 -16 -11 -26
-14 -6 -32 -22 -39 -36 -12 -23 -11 -27 10 -44 33 -27 75 -25 95 6 9 13 16 31
16 40 0 19 32 19 70 0 39 -20 38 -31 -7 -54 -88 -44 -111 -46 -227 -16 -98 26
-142 28 -106 4 21 -13 80 -29 110 -29 14 0 32 -4 40 -10 12 -7 12 -12 -4 -29
-29 -32 -69 -35 -169 -12 -51 12 -120 27 -154 35 l-63 13 0 -26 c0 -15 6 -36
14 -47 13 -17 27 -19 127 -19 78 0 113 -4 116 -12 5 -13 -113 -146 -134 -151
-7 -2 -25 5 -40 16 -53 36 -57 36 -34 -4 12 -21 33 -52 46 -68 21 -27 26 -29
47 -17 13 6 40 35 61 64 68 94 131 158 146 148 10 -6 10 -13 2 -28 -9 -18 -6
-21 30 -32 64 -19 78 5 33 59 -15 17 -23 34 -19 38 3 4 28 7 53 7 46 0 47 1
52 35 6 43 26 48 113 29 55 -11 61 -11 73 6 20 27 17 69 -5 89 -22 20 -102 46
-143 46 -39 0 -35 18 5 22 28 3 32 7 35 36 4 40 -18 51 -54 27 -25 -16 -26
-16 -49 9 -31 34 -38 33 -30 -4 6 -26 3 -30 -21 -36 -34 -9 -55 16 -47 56 6
30 -13 100 -27 100 -5 0 -6 -15 -3 -33z m121 -221 c6 -28 -13 -40 -32 -21 -13
14 -14 20 -5 31 15 18 33 13 37 -10z"/>
<path d="M1487 6995 c-4 -9 -2 -37 4 -62 5 -26 8 -52 5 -60 -10 -24 -36 -13
-53 22 -14 29 -22 35 -47 35 -17 0 -38 -5 -46 -10 -13 -9 -12 -12 4 -25 11 -8
26 -15 33 -15 21 0 75 -30 71 -40 -2 -4 -31 -29 -66 -54 -64 -47 -71 -66 -26
-66 17 0 45 19 85 57 32 31 59 52 59 47 0 -5 18 22 40 60 22 37 40 74 40 81 0
19 -24 35 -63 42 -26 4 -36 1 -40 -12z m61 -61 c-5 -28 -28 -29 -28 -1 0 13 3
27 7 30 10 11 25 -9 21 -29z"/>
<path d="M4496 6853 c-4 -38 -8 -82 -11 -100 -5 -42 8 -51 89 -59 l68 -7 -50
50 c-50 50 -72 97 -72 156 0 55 -19 25 -24 -40z"/>
<path d="M1586 6868 c10 -30 8 -57 -6 -73 -10 -13 -38 -10 -50 4 -3 4 -15 -3
-28 -15 l-22 -21 21 -27 20 -26 -20 0 c-13 0 -21 -6 -21 -16 0 -14 -7 -15 -45
-10 -51 8 -59 -4 -19 -30 16 -11 24 -24 21 -35 -4 -13 3 -18 27 -22 35 -6 60
16 51 43 -3 9 1 24 9 35 13 18 14 17 31 -8 16 -25 16 -27 -5 -54 -11 -15 -55
-63 -97 -106 -81 -81 -87 -106 -25 -92 37 8 52 24 92 101 17 34 42 71 55 84
l23 22 7 -21 c4 -14 -1 -31 -15 -50 -23 -33 -57 -157 -46 -168 11 -12 39 11
59 48 20 36 56 79 66 79 3 0 17 -19 31 -41 42 -69 88 -115 101 -102 18 18 1
68 -47 138 -49 71 -51 77 -28 96 8 7 22 25 30 40 l14 28 -49 7 -50 6 24 47
c13 25 33 60 45 77 18 28 18 33 5 44 -20 17 -42 6 -63 -31 -37 -66 -44 -68
-39 -14 3 28 8 58 12 68 6 15 1 17 -35 17 -38 0 -41 -2 -34 -22z m38 -94 c11
-29 7 -64 -9 -64 -19 0 -49 46 -41 65 7 20 42 19 50 -1z m66 -26 c0 -19 -38
-78 -50 -78 -16 0 -12 20 11 56 21 34 39 44 39 22z m16 -109 c9 -16 -18 -30
-33 -17 -7 6 -13 14 -13 19 0 13 38 11 46 -2z m-91 -134 c-48 -89 -65 -64 -19
27 19 38 28 48 37 39 9 -9 5 -25 -18 -66z"/>
<path d="M3145 6664 c-406 -42 -642 -94 -920 -200 -498 -192 -873 -491 -1053
-840 -217 -424 -133 -889 231 -1270 366 -384 972 -646 1657 -715 148 -15 511
-15 665 0 902 87 1660 512 1920 1075 251 542 16 1124 -615 1523 -320 203 -731
344 -1173 404 -146 19 -603 34 -712 23z m465 -45 c209 -19 522 -94 655 -158
40 -19 34 -19 -870 -19 l-910 0 55 25 c140 64 421 133 620 151 136 13 317 14
450 1z m-1150 -140 c-64 -30 -94 -39 -125 -37 -38 3 -34 5 65 40 139 48 165
47 60 -3z m1914 10 c113 -35 138 -49 84 -49 -30 0 -220 78 -194 79 5 1 54 -13
110 -30z m-2114 -106 c0 -5 -23 -21 -51 -37 -153 -86 -393 -302 -501 -453
-244 -339 -312 -733 -191 -1117 34 -108 119 -273 194 -377 115 -158 334 -354
507 -455 l66 -39 -64 -3 c-62 -3 -69 0 -198 63 -469 234 -770 550 -878 920
-32 111 -43 304 -24 423 64 395 376 753 886 1014 121 62 139 68 194 68 33 0
60 -3 60 -7z m2245 -39 c123 -70 228 -150 342 -258 127 -121 214 -235 286
-375 99 -193 138 -348 139 -551 1 -187 -27 -320 -104 -507 l-22 -53 -1751 0
-1752 0 -26 58 c-31 72 -72 199 -88 277 -18 82 -17 343 0 430 17 86 73 249
111 325 124 246 370 493 659 662 l66 38 1030 0 1030 0 80 -46z m270 -13 c226
-112 461 -281 599 -433 318 -348 399 -760 227 -1158 -53 -123 -137 -245 -250
-363 -157 -164 -344 -296 -585 -417 -118 -58 -127 -61 -187 -58 l-64 3 50 29
c157 91 372 279 479 419 123 161 198 313 249 507 28 106 30 129 31 285 0 153
-2 181 -27 278 -90 360 -334 685 -674 900 -45 29 -82 55 -83 60 0 4 26 7 57 7
49 0 73 -8 178 -59z m-1857 -1789 c2 -6 -13 -14 -35 -17 -73 -12 -80 -24 -10
-18 74 6 79 2 53 -49 -8 -16 -11 -28 -5 -28 5 0 9 -4 9 -10 0 -5 -7 -10 -15
-10 -8 0 -15 -4 -15 -9 0 -4 12 -7 27 -5 28 3 63 -11 63 -25 0 -5 -20 -6 -44
-4 -45 5 -45 5 -51 -31 -8 -39 -28 -46 -79 -26 -38 14 -32 30 9 23 31 -5 35
-3 35 17 0 19 -4 21 -25 16 -14 -3 -36 -9 -50 -12 -14 -3 -25 -2 -25 4 0 5 23
12 51 16 33 5 49 11 46 19 -2 7 3 18 12 24 13 10 10 11 -17 2 -17 -6 -35 -15
-38 -20 -3 -5 -10 -7 -15 -4 -17 11 -9 23 19 30 l27 7 -24 9 c-13 5 -25 8 -25
7 -1 -2 -20 -27 -41 -55 -26 -35 -46 -53 -60 -52 l-20 0 20 10 c28 14 71 85
85 141 11 44 15 48 49 53 20 4 43 8 51 9 22 5 33 1 38 -12z m739 -29 c-4 -23
-2 -33 6 -32 43 5 50 -12 12 -29 -14 -6 -25 -16 -25 -22 0 -15 26 -12 40 5 13
16 40 20 40 7 0 -5 -12 -14 -26 -21 -26 -11 -26 -12 -8 -32 10 -11 37 -25 61
-31 52 -13 56 -28 7 -28 -24 0 -46 8 -66 25 -42 35 -52 32 -44 -14 6 -37 -5
-63 -18 -42 -3 4 -19 11 -36 14 -16 4 -30 12 -30 18 0 7 9 9 25 5 24 -6 25 -5
25 49 0 52 -1 55 -25 55 -30 0 -32 -11 -5 -28 20 -12 28 -42 11 -42 -5 0 -23
-12 -40 -26 -17 -14 -35 -23 -41 -19 -19 12 -10 25 28 41 25 12 32 18 21 21
-11 3 -18 17 -21 38 -4 33 -2 35 32 41 40 8 50 18 50 55 0 29 8 41 22 32 6 -3
8 -21 5 -40z m-1116 14 c-18 -18 -12 -26 17 -24 17 1 27 -3 27 -12 0 -8 -10
-15 -22 -16 -42 -3 -37 -15 5 -15 23 0 42 -3 42 -7 0 -3 -11 -21 -25 -39 -14
-18 -25 -34 -25 -36 0 -2 17 -2 38 0 26 3 42 -1 51 -12 11 -14 11 -16 -3 -16
-10 0 -26 5 -38 11 -27 14 -35 4 -15 -19 32 -36 22 -45 -40 -37 -68 8 -73 11
-73 33 -1 16 -2 16 -14 0 -12 -17 -36 -25 -36 -13 0 7 33 59 41 65 4 3 -2 16
-12 29 -18 22 -21 23 -36 8 -13 -13 -14 -19 -4 -31 7 -8 9 -20 5 -27 -4 -7 -7
-25 -6 -40 0 -16 -4 -29 -9 -29 -5 0 -9 16 -9 36 0 35 -1 35 -31 29 -28 -6
-30 -5 -21 12 6 10 19 27 31 37 14 12 19 26 15 40 -7 30 31 66 49 47 9 -11 9
-14 0 -18 -17 -6 -16 -20 1 -26 8 -3 13 1 12 11 0 10 8 18 21 20 13 2 25 14
32 32 7 22 14 28 26 24 12 -5 13 -10 6 -17z m649 3 c0 -13 -7 -20 -20 -20 -25
0 -26 16 -2 29 23 14 22 14 22 -9z m57 -16 l-26 -22 27 -5 c15 -3 36 -13 47
-21 17 -14 18 -17 5 -26 -24 -16 -40 -12 -40 11 0 23 -1 23 -135 4 -38 -6 -39
-5 -16 8 20 12 21 15 7 20 -16 6 -23 37 -8 37 5 0 17 -8 28 -18 24 -23 41 -18
76 19 18 20 32 27 44 22 15 -6 14 -9 -9 -29z m1413 5 c0 -5 -9 -9 -20 -9 -19
0 -27 20 -13 33 7 8 33 -11 33 -24z m-611 -31 c-3 -38 -1 -43 18 -43 12 0 25
-4 29 -8 14 -13 -16 -25 -55 -21 -30 3 -32 2 -13 -6 24 -10 32 -33 8 -24 -8 3
-17 0 -21 -6 -10 -16 14 -40 39 -40 33 0 96 -20 96 -30 0 -6 -22 -10 -48 -10
-36 0 -54 5 -67 20 -10 11 -25 20 -34 20 -9 0 -28 6 -42 14 -22 11 -28 11 -48
-5 -25 -20 -51 -25 -51 -10 0 5 8 12 19 16 10 3 27 15 37 27 l19 21 -37 -7
c-56 -10 -55 10 1 24 47 11 49 13 40 37 -22 58 -11 70 69 72 l44 1 -3 -42z
m399 -71 c3 -118 0 -123 -61 -94 -36 16 -34 25 5 19 l31 -5 -7 97 c-6 90 -5
97 11 94 16 -3 18 -17 21 -111z m-2183 -2 c0 -58 -3 -105 -6 -105 -3 0 -20 5
-38 11 -37 13 -42 28 -6 21 25 -4 25 -4 25 72 0 60 -3 78 -15 83 -22 8 -30 -4
-16 -21 9 -11 8 -15 -4 -20 -23 -8 -18 -28 5 -21 12 4 20 2 20 -5 0 -7 -9 -14
-19 -17 -11 -3 -32 -23 -47 -44 -15 -21 -33 -39 -42 -39 -11 0 -12 3 -3 14 10
12 8 16 -10 21 -16 6 -18 9 -8 16 7 4 11 11 7 14 -7 7 -50 -13 -59 -28 -4 -5
-15 -7 -25 -3 -18 7 -18 8 -1 17 13 7 17 23 17 60 0 54 3 57 65 61 l40 3 -2
-65 c-3 -72 10 -59 22 23 7 48 13 52 75 56 l25 1 0 -105z m1473 93 c19 -19 14
-30 -10 -26 -13 2 -24 11 -26 21 -4 20 18 23 36 5z m562 -3 c0 -8 7 -15 15
-15 8 0 15 -7 15 -16 0 -12 -6 -15 -25 -10 -14 4 -34 1 -45 -6 -26 -17 -26
-32 1 -18 11 6 30 10 42 8 18 -2 21 -8 19 -36 -2 -18 2 -40 9 -49 18 -21 -14
-45 -50 -36 -33 8 -41 20 -41 61 0 32 -1 33 -22 18 -33 -23 -45 -19 -21 7 11
12 32 41 47 65 26 41 56 56 56 27z m372 -40 c3 -27 0 -35 -12 -35 -13 0 -13
-1 0 -10 13 -9 13 -12 -3 -24 -15 -12 -16 -14 -2 -20 18 -7 35 29 35 73 0 24
6 30 39 39 49 15 51 15 51 -3 0 -8 -14 -18 -32 -23 -17 -4 -33 -13 -36 -20 -3
-9 4 -9 27 -1 16 6 40 9 53 7 28 -4 31 -30 4 -34 -27 -4 -35 -21 -32 -76 1
-31 -3 -48 -10 -48 -16 0 -24 24 -24 76 0 32 -4 44 -15 44 -8 0 -15 -8 -15
-19 0 -24 -31 -52 -37 -33 -7 20 -21 14 -25 -10 -2 -15 -9 -21 -18 -19 -8 2
-25 5 -37 6 -31 2 -38 12 -23 30 11 13 10 14 -4 9 -9 -3 -16 -2 -16 4 0 5 7
12 15 16 8 3 12 12 9 21 -4 9 -1 15 9 15 8 0 17 9 20 19 3 14 1 18 -9 14 -8
-3 -14 1 -14 10 0 15 21 22 76 26 18 1 23 -6 26 -34z m-296 -39 c-12 -40 -26
-38 -26 5 0 22 5 29 19 29 16 0 17 -4 7 -34z m-1298 12 c-3 -7 -14 -14 -26
-16 -16 -3 -20 1 -16 12 7 19 48 22 42 4z m162 2 c0 -5 -8 -14 -17 -19 -15 -8
-11 -10 19 -11 27 0 40 -6 48 -20 10 -19 8 -19 -33 -14 l-43 6 -9 -38 c-8 -31
-15 -40 -35 -42 -14 -2 -34 4 -45 12 -19 15 -19 15 13 16 26 0 32 4 32 21 0
20 -4 21 -50 16 -27 -3 -50 -3 -50 2 0 4 23 14 50 21 29 8 50 19 50 27 0 11
-5 11 -20 3 -21 -11 -40 -6 -40 10 0 10 30 17 88 19 23 0 42 -3 42 -9z m1620
-224 c0 -3 -39 -37 -87 -77 -94 -78 -238 -176 -315 -215 l-47 -24 -1016 0
c-1014 0 -1016 0 -1057 21 -98 50 -327 216 -382 278 l-19 21 1461 0 c804 0
1462 -2 1462 -4z m-2378 -408 c42 -17 76 -34 73 -36 -4 -5 -225 58 -225 64 0
15 87 -1 152 -28z m1786 27 c-10 -11 -246 -87 -323 -105 -198 -46 -291 -55
-550 -55 -267 0 -372 11 -572 60 -88 21 -290 88 -302 100 -2 3 391 5 874 5
483 0 876 -2 873 -5z m92 -31 c-58 -19 -109 -33 -113 -31 -20 6 141 65 178 65
34 0 24 -5 -65 -34z"/>
<path d="M3365 6149 c-166 -21 -322 -78 -381 -140 -18 -18 -38 -29 -55 -29
-45 0 -131 -21 -172 -42 -112 -56 -49 -152 165 -252 51 -24 174 -76 273 -116
202 -80 261 -110 303 -151 35 -34 46 -94 32 -170 -33 -176 -170 -285 -430
-345 -91 -21 -529 -30 -727 -15 -144 11 -154 11 -214 -9 -34 -12 -83 -32 -108
-45 l-46 -24 806 -1 c793 0 807 0 832 20 61 48 139 181 158 268 19 93 -12 139
-182 265 -42 31 -103 84 -135 118 -69 72 -167 142 -319 229 -199 113 -241 155
-219 219 22 62 140 77 353 45 463 -68 1158 -290 1098 -350 -3 -3 -108 -7 -234
-7 l-228 -2 -57 -28 c-48 -24 -118 -89 -118 -111 0 -3 45 -6 100 -6 55 0 100
-1 100 -2 0 -2 -33 -136 -74 -298 -40 -162 -76 -308 -80 -323 l-7 -28 108 3
107 3 32 115 c17 63 55 203 83 310 29 107 54 203 57 213 3 10 15 17 30 17 14
0 57 7 97 16 69 16 75 19 147 93 128 132 179 245 147 323 -19 46 -49 73 -120
109 -193 98 -804 168 -1122 128z"/>
<path d="M2385 5448 c-2 -7 -31 -110 -65 -228 -34 -118 -65 -228 -70 -243 l-9
-28 91 3 91 3 21 65 c20 61 23 65 54 68 37 4 38 -1 17 -72 -8 -27 -15 -53 -15
-58 0 -4 45 -8 99 -8 l99 0 11 33 c6 17 36 120 67 227 31 107 60 207 65 223
l8 27 -103 0 -104 0 -44 -157 -44 -158 -38 -3 c-33 -3 -38 -1 -34 15 8 27 78
265 84 286 5 15 -4 17 -86 17 -64 0 -92 -4 -95 -12z"/>
<path d="M2909 5458 c0 -2 -33 -115 -73 -253 l-73 -250 225 -3 c124 -1 227 0
229 2 3 2 37 117 77 255 l73 251 -97 0 -96 0 -65 -222 -64 -223 -35 0 c-25 0
-34 4 -32 14 3 12 103 362 118 414 5 15 -4 17 -90 17 -53 0 -96 -1 -97 -2z"/>
<path d="M2880 4481 c0 -5 -8 -12 -17 -14 -12 -3 -9 -5 8 -6 16 -1 29 5 33 14
3 9 0 15 -9 15 -8 0 -15 -4 -15 -9z"/>
<path d="M2528 4393 c7 -3 16 -2 19 1 4 3 -2 6 -13 5 -11 0 -14 -3 -6 -6z"/>
<path d="M2520 4370 c0 -5 5 -10 10 -10 6 0 10 5 10 10 0 6 -4 10 -10 10 -5 0
-10 -4 -10 -10z"/>
<path d="M2496 4345 c7 -18 74 -21 74 -4 0 7 -10 9 -24 5 -14 -3 -28 -2 -31 4
-10 16 -25 12 -19 -5z"/>
<path d="M3975 4510 c-3 -5 2 -10 12 -10 17 -1 17 -1 0 -14 -17 -13 -16 -14 3
-19 17 -4 20 0 20 24 0 29 -22 41 -35 19z"/>
<path d="M3960 4390 c0 -5 5 -10 10 -10 6 0 10 5 10 10 0 6 -4 10 -10 10 -5 0
-10 -4 -10 -10z"/>
<path d="M2080 4471 c0 -5 6 -11 13 -14 9 -3 8 -8 -3 -22 -13 -16 -13 -18 0
-13 21 7 26 58 6 58 -9 0 -16 -4 -16 -9z"/>
<path d="M4265 4420 c-3 -5 1 -10 9 -10 9 0 16 5 16 10 0 6 -4 10 -9 10 -6 0
-13 -4 -16 -10z"/>
<path d="M4260 4375 c0 -21 28 -31 43 -16 9 9 8 14 -3 21 -22 14 -40 12 -40
-5z"/>
<path d="M4615 4450 c-3 -5 -1 -10 4 -10 6 0 11 5 11 10 0 6 -2 10 -4 10 -3 0
-8 -4 -11 -10z"/>
<path d="M4590 4365 c0 -8 5 -15 10 -15 6 0 10 7 10 15 0 8 -4 15 -10 15 -5 0
-10 -7 -10 -15z"/>
<path d="M2875 4064 c8 -80 10 -84 36 -84 15 0 19 7 19 35 0 19 5 35 10 35 6
0 10 -16 10 -35 0 -31 3 -35 25 -35 19 0 25 5 25 23 0 12 3 46 6 75 6 42 4 52
-8 52 -8 0 -19 -10 -25 -22 l-10 -23 -7 23 c-10 30 -32 28 -41 -5 l-8 -28 -6
24 c-4 14 -13 27 -20 29 -11 4 -12 -9 -6 -64z"/>
<path d="M3026 4115 c-3 -9 -6 -38 -6 -65 0 -53 16 -73 52 -68 21 3 23 8 26
76 2 57 0 73 -10 70 -8 -3 -15 -29 -19 -69 l-5 -64 -5 64 c-4 62 -20 89 -33
56z"/>
<path d="M3130 4055 c0 -60 3 -75 15 -75 11 0 15 11 15 36 0 21 4 33 10 29 6
-3 10 -19 10 -36 0 -19 5 -29 15 -29 13 0 15 12 13 72 -2 46 -7 73 -15 76 -9
2 -13 -7 -13 -27 0 -17 -4 -31 -10 -31 -5 0 -10 14 -10 30 0 20 -5 30 -15 30
-12 0 -15 -15 -15 -75z"/>
<path d="M3247 4123 c-2 -5 -7 -26 -11 -48 -4 -22 -9 -52 -12 -67 -7 -34 21
-40 29 -7 6 23 27 17 27 -7 0 -8 7 -14 16 -14 12 0 14 7 10 28 -3 15 -8 48
-12 75 -5 36 -10 47 -25 47 -10 0 -20 -3 -22 -7z"/>
<path d="M3327 4123 c-4 -3 -7 -37 -7 -75 0 -61 2 -68 19 -68 12 0 21 8 24 23
l4 22 2 -22 c0 -13 8 -23 16 -23 12 0 15 15 15 75 0 76 -12 97 -30 53 l-9 -23
0 23 c-1 21 -20 30 -34 15z"/>
<path d="M3494 4116 c-3 -7 -4 -40 -2 -72 3 -53 5 -59 26 -62 26 -4 52 13 52
34 0 20 -38 17 -43 -3 -3 -10 -5 9 -4 42 0 33 2 47 4 32 5 -35 37 -34 39 1 2
35 -60 59 -72 28z"/>
<path d="M3590 4055 c0 -60 3 -75 15 -75 11 0 15 11 15 36 0 21 4 33 10 29 6
-3 10 -19 10 -36 0 -19 5 -29 15 -29 12 0 15 15 15 75 0 60 -3 75 -15 75 -10
0 -15 -10 -15 -30 0 -16 -4 -30 -10 -30 -5 0 -10 14 -10 30 0 20 -5 30 -15 30
-12 0 -15 -15 -15 -75z"/>
<path d="M3687 4123 c-4 -3 -7 -37 -7 -75 0 -61 2 -68 20 -68 18 0 20 7 20 75
0 56 -3 75 -13 75 -8 0 -17 -3 -20 -7z"/>
<path d="M3740 4055 c0 -58 3 -75 14 -75 8 0 16 12 18 28 l4 27 12 -27 c20
-48 32 -32 32 41 0 70 -15 106 -22 54 l-4 -28 -12 28 c-6 15 -18 27 -27 27
-12 0 -15 -14 -15 -75z"/>
<path d="M3857 4123 c-3 -5 -8 -30 -11 -58 -4 -27 -9 -58 -12 -67 -4 -14 1
-18 20 -18 18 0 26 6 29 23 l4 22 2 -22 c0 -13 8 -23 16 -23 17 0 19 28 9 104
-6 40 -10 46 -30 46 -12 0 -25 -3 -27 -7z"/>
<path d="M5920 6381 c0 -11 -3 -26 -6 -35 -6 -15 -74 -69 -144 -113 -19 -12
-30 -23 -23 -23 13 0 -39 -80 -98 -148 -28 -33 -40 -40 -59 -35 -22 6 -22 4
10 -35 31 -39 56 -49 43 -16 -8 22 146 235 186 258 9 5 36 27 59 49 35 31 50
38 73 35 16 -3 29 -3 29 -1 0 10 -54 83 -61 83 -5 0 -9 -9 -9 -19z"/>
<path d="M833 6349 c-29 -46 -29 -46 6 -46 24 0 83 -33 185 -105 6 -4 -6 -30
-27 -62 l-37 -56 -90 67 c-53 40 -90 75 -90 86 0 26 -15 21 -43 -17 -29 -38
-27 -47 12 -40 21 4 52 -14 161 -92 74 -53 154 -108 177 -122 29 -19 42 -34
43 -49 0 -13 4 -23 9 -23 8 0 51 64 51 76 0 2 -14 4 -30 4 -20 0 -56 17 -105
50 -41 28 -75 54 -75 58 0 4 17 26 38 50 l37 43 74 -50 c76 -51 97 -73 86 -91
-14 -22 15 -8 34 16 29 37 27 56 -3 48 -19 -4 -60 18 -204 115 -153 103 -181
125 -184 149 l-3 27 -22 -36z"/>
<path d="M5700 6197 c-94 -42 -110 -50 -107 -53 5 -5 137 54 137 61 0 6 1 6
-30 -8z"/>
<path d="M6005 6164 c-46 -30 -77 -43 -91 -40 -32 8 -34 -2 -11 -39 26 -40 47
-45 47 -11 0 17 14 32 57 60 65 40 97 45 113 17 21 -40 11 -64 -54 -126 -115
-110 -256 -181 -323 -163 -49 13 -44 48 14 116 l47 55 -74 -49 c-41 -28 -67
-50 -58 -52 10 -2 14 -11 11 -25 -3 -13 4 -31 17 -44 17 -19 31 -23 84 -23 52
0 74 6 122 31 139 75 234 160 251 228 8 32 -14 70 -52 92 -30 17 -30 17 -100
-27z"/>
<path d="M5496 6132 c-6 -6 35 -62 46 -62 4 0 8 11 8 25 0 13 8 29 18 34 13 8
8 10 -25 9 -24 -1 -45 -3 -47 -6z"/>
<path d="M629 6070 c-26 -15 -32 -57 -13 -95 18 -38 50 -63 232 -179 87 -55
124 -85 128 -102 10 -39 17 -33 52 39 2 4 -12 7 -32 7 -41 0 -60 10 -218 114
-153 101 -190 157 -124 187 19 9 35 8 70 -4 59 -20 311 -185 327 -214 16 -30
21 -29 42 6 22 38 22 43 -7 35 -18 -4 -54 16 -166 91 -79 53 -159 103 -178
111 -39 16 -89 18 -113 4z"/>
<path d="M544 5897 c-20 -42 -15 -54 14 -36 16 10 27 8 66 -14 55 -31 60 -27
10 7 -20 14 -45 37 -55 52 l-18 27 -17 -36z"/>
<path d="M6110 5920 c-100 -18 -243 -91 -296 -151 -24 -27 -37 -72 -29 -99 15
-46 117 -51 236 -11 116 39 164 65 215 118 36 37 44 51 44 83 0 21 -6 43 -14
49 -19 16 -101 22 -156 11z m131 -20 c30 -17 24 -61 -13 -97 -45 -42 -174
-108 -248 -127 -234 -60 -237 59 -4 165 72 33 182 67 222 68 13 1 32 -4 43 -9z"/>
<path d="M480 5760 c-11 -22 -19 -40 -18 -41 2 0 21 -1 43 -3 22 -1 123 -25
225 -53 102 -28 201 -54 220 -58 l35 -7 -40 29 c-30 22 -65 34 -137 48 -123
23 -123 23 -108 69 12 38 13 38 63 4 15 -11 27 -17 27 -14 0 3 -20 19 -45 36
l-45 31 -19 -45 -19 -44 -71 20 c-54 16 -71 25 -71 39 0 34 -19 29 -40 -11z"/>
<path d="M6265 5711 l-40 -7 53 -8 c56 -8 76 -28 70 -69 -4 -27 -24 -34 -252
-87 -147 -35 -183 -40 -199 -31 -27 17 -30 9 -16 -38 l12 -41 22 24 c17 18 62
33 212 69 206 51 223 53 241 35 19 -19 19 -8 4 80 -17 91 -12 88 -107 73z"/>
<path d="M432 5578 c-6 -51 -9 -94 -7 -96 2 -2 23 -8 47 -13 24 -5 52 -12 63
-15 11 -3 -2 8 -30 23 -43 24 -50 33 -53 62 -2 19 -1 45 3 58 5 23 10 22 232
-93 159 -82 228 -112 233 -104 9 15 35 159 29 164 -2 2 -25 6 -51 9 l-48 7 38
-34 c34 -31 37 -39 34 -75 -2 -23 -7 -41 -11 -41 -8 0 -392 203 -428 226 -12
8 -26 14 -31 14 -4 0 -13 -41 -20 -92z"/>
<path d="M6080 5467 c-72 -17 -110 -38 -149 -82 -35 -40 -36 -45 -18 -67 51
-62 142 -79 304 -55 152 23 223 64 223 128 0 32 -5 40 -37 60 -32 20 -52 23
-152 26 -69 1 -138 -3 -171 -10z m258 -21 c90 -24 107 -57 50 -99 -55 -40
-131 -57 -273 -59 -111 -3 -135 0 -158 15 -50 33 -26 86 51 111 43 15 203 42
257 45 11 0 44 -6 73 -13z"/>
<path d="M387 5417 c-4 -10 -7 -35 -7 -55 0 -28 3 -33 12 -24 15 15 65 15 162
1 l75 -11 -6 -52 c-3 -28 -7 -52 -8 -54 -1 -1 -52 3 -114 10 -78 8 -111 16
-111 25 0 7 -6 13 -14 13 -16 0 -27 -78 -12 -88 5 -3 12 0 14 6 5 16 85 15
276 -3 161 -15 196 -24 196 -50 0 -23 17 -18 24 8 8 30 8 77 -1 77 -3 0 -14
-6 -22 -14 -13 -11 -36 -13 -111 -8 l-95 7 4 55 c1 30 5 59 8 63 5 8 115 2
175 -9 15 -3 30 -14 33 -25 11 -33 25 -10 25 39 0 36 -3 43 -12 34 -16 -16
-88 -15 -273 2 -163 15 -201 25 -207 53 -3 17 -4 17 -11 0z"/>
<path d="M5910 5195 c0 -34 4 -45 15 -45 9 0 18 7 21 15 4 8 18 15 33 15 l26
0 -32 20 c-18 11 -33 24 -33 30 0 5 -7 10 -15 10 -11 0 -15 -12 -15 -45z"/>
<path d="M6295 5177 c-5 -8 -94 -41 -196 -73 l-187 -58 -5 -61 c-2 -33 -8 -69
-12 -79 -7 -17 -6 -18 11 -11 24 10 52 9 130 -6 87 -16 88 -16 74 -83 -13 -64
-16 -65 -110 -42 -81 20 -108 33 -112 53 -3 12 -9 4 -18 -25 -15 -48 -11 -59
17 -42 15 10 55 4 208 -30 213 -46 245 -56 245 -76 0 -31 19 -11 25 27 7 38
-2 69 -12 42 -3 -7 -17 -13 -31 -13 -40 1 -197 46 -197 56 1 26 18 94 24 98 9
6 160 -23 193 -37 15 -6 30 -20 33 -32 6 -16 9 -12 21 24 16 50 10 69 -15 47
-16 -14 -35 -12 -217 29 -250 57 -234 52 -234 79 0 39 31 56 116 65 77 8 78 8
24 11 -54 2 -52 3 150 70 131 43 194 68 174 69 -17 1 -44 4 -60 7 -19 3 -32 0
-39 -9z"/>
<path d="M565 5115 c-33 -8 -90 -27 -127 -44 -67 -30 -68 -31 -68 -70 0 -85
105 -119 300 -97 143 15 240 74 225 135 -9 37 -22 47 -90 70 -68 24 -149 26
-240 6z m276 -41 c42 -21 46 -41 14 -74 -43 -45 -112 -62 -265 -67 -123 -4
-138 -2 -167 16 -40 25 -44 62 -10 86 79 56 349 81 428 39z"/>
<path d="M6395 5050 c-16 -18 -32 -20 -144 -22 l-126 -2 125 -6 c131 -6 160
-13 160 -37 0 -8 5 -11 10 -8 12 7 14 95 2 95 -5 0 -17 -9 -27 -20z"/>
<path d="M872 4930 c-7 -12 -24 -26 -37 -32 -14 -6 -25 -17 -25 -24 0 -8 -13
-20 -29 -28 -26 -14 -320 -202 -329 -211 -2 -2 22 3 54 12 32 8 63 20 69 28 5
7 62 44 125 82 235 143 220 131 208 164 -12 34 -19 36 -36 9z"/>
<path d="M628 4843 c7 -3 16 -2 19 1 4 3 -2 6 -13 5 -11 0 -14 -3 -6 -6z"/>
<path d="M406 4832 c-8 -13 4 -71 16 -78 5 -3 18 5 28 19 11 14 38 29 65 36
25 6 45 13 45 14 0 2 -27 1 -60 -1 -37 -3 -65 0 -74 7 -9 7 -17 8 -20 3z"/>
<path d="M588 4833 c7 -3 16 -2 19 1 4 3 -2 6 -13 5 -11 0 -14 -3 -6 -6z"/>
<path d="M915 4778 c-6 -15 -28 -29 -60 -40 l-50 -17 56 6 c37 3 59 1 63 -6
15 -24 26 -9 26 34 0 49 -18 61 -35 23z"/>
<path d="M5866 4703 c3 -12 -3 -21 -18 -28 -38 -17 -36 -67 4 -107 56 -57 73
-68 157 -103 134 -55 255 -69 297 -34 28 23 17 75 -24 119 -22 22 -44 40 -49
40 -6 0 7 -17 28 -39 41 -41 47 -57 27 -84 -58 -77 -448 69 -448 167 0 22 58
49 89 42 14 -3 37 -8 51 -11 25 -6 -61 38 -98 49 -16 5 -19 3 -16 -11z"/>
<path d="M738 4703 c7 -3 16 -2 19 1 4 3 -2 6 -13 5 -11 0 -14 -3 -6 -6z"/>
<path d="M835 4674 c-80 -16 -171 -53 -231 -93 -114 -76 -143 -145 -83 -195
39 -33 46 -33 117 4 65 33 82 36 100 18 17 -17 16 2 -4 52 -18 45 -34 52 -34
15 0 -28 -24 -47 -93 -70 -62 -21 -87 -13 -87 26 0 16 7 40 15 53 38 57 239
162 334 173 61 7 91 -8 91 -46 0 -28 -18 -48 -92 -103 -13 -11 8 -5 52 13 41
17 80 36 85 41 7 8 4 9 -9 4 -15 -5 -17 -2 -12 18 16 65 -56 108 -149 90z"/>
<path d="M5735 4486 c-25 -40 -45 -75 -45 -78 0 -3 11 -3 24 -1 16 3 52 -12
117 -52 52 -32 131 -80 176 -107 88 -53 99 -63 105 -93 2 -15 15 -2 51 53 26
40 50 78 52 85 3 7 -18 25 -46 40 l-52 28 32 -38 c17 -20 31 -42 31 -48 -1
-21 -39 -55 -61 -55 -23 0 -179 96 -179 111 0 4 7 14 15 23 14 13 20 13 55 1
22 -8 40 -13 40 -11 0 7 -122 78 -126 73 -3 -3 -1 -14 4 -24 6 -11 7 -25 1
-35 -8 -14 -20 -10 -99 34 -49 28 -90 56 -90 62 0 6 7 22 16 34 17 24 70 30
105 12 39 -21 18 -1 -31 29 l-49 30 -46 -73z"/>
<path d="M1099 4424 c-1 -5 -1 -16 0 -24 2 -22 -20 -43 -177 -170 -114 -92
-142 -119 -152 -151 -11 -33 -11 -42 4 -63 9 -14 27 -28 40 -32 33 -8 127 42
196 104 30 27 88 74 128 105 58 45 79 56 98 51 32 -8 30 6 -6 41 -27 26 -35
26 -31 2 3 -17 -58 -78 -168 -167 -153 -123 -203 -143 -232 -88 -18 33 8 74
85 134 39 30 109 86 155 125 58 47 90 68 102 64 32 -10 29 11 -6 45 -19 19
-36 30 -36 24z"/>
<path d="M5617 4325 c-25 -40 -48 -78 -49 -84 -2 -7 19 -28 46 -48 36 -28 45
-31 35 -15 -8 12 -17 22 -21 22 -3 0 -13 13 -21 29 -12 25 -13 33 -2 48 12 16
22 12 129 -62 209 -142 251 -177 251 -208 -1 -37 15 -33 47 10 30 39 28 59 -3
42 -23 -12 -62 12 -262 165 -90 70 -124 102 -120 113 6 16 53 14 98 -2 17 -7
-36 37 -70 57 -6 4 -32 -26 -58 -67z"/>
<path d="M1280 4203 c-1 -33 -24 -60 -162 -192 -126 -120 -140 -131 -175 -131
l-37 0 34 -35 c37 -38 48 -38 48 2 0 21 13 40 55 78 30 27 92 83 136 124 45
40 81 71 81 68 0 -7 -191 -351 -201 -361 -5 -6 -9 -16 -9 -24 0 -7 20 5 43 28
24 22 44 46 44 53 0 7 43 93 97 191 92 170 96 179 80 197 -21 24 -34 24 -34 2z"/>
<path d="M1390 4085 c0 -19 -11 -40 -32 -62 -38 -39 -23 -44 21 -7 41 34 85
30 89 -7 2 -20 -19 -58 -84 -150 -148 -210 -165 -231 -180 -225 -26 10 -24
-13 3 -32 54 -37 56 -37 51 -7 -5 22 7 46 60 124 143 211 182 260 210 263 26
3 25 4 -18 32 -25 15 -62 44 -82 64 l-38 36 0 -29z"/>
<path d="M5385 4077 c-42 -27 -46 -32 -27 -35 16 -3 52 -47 128 -160 117 -173
138 -213 128 -244 -6 -19 -2 -18 47 10 30 17 59 41 66 54 21 41 1 135 -47 219
-49 87 -59 99 -123 150 -63 50 -102 52 -172 6z m126 -10 c62 -38 131 -129 183
-238 31 -67 33 -99 7 -130 -19 -23 -21 -23 -47 -9 -17 9 -70 80 -136 180 -129
197 -123 185 -106 204 19 22 58 19 99 -7z"/>
<path d="M5267 3986 c-39 -24 -39 -36 -1 -36 17 0 34 -16 64 -60 55 -80 60
-76 8 6 -35 55 -40 69 -30 85 18 28 1 30 -41 5z"/>
<path d="M1583 3938 c5 -17 -9 -56 -48 -136 -31 -62 -69 -146 -86 -188 -16
-42 -37 -90 -45 -106 -9 -17 -14 -32 -12 -34 2 -2 33 26 69 63 56 58 66 77 17
35 -27 -23 -23 -10 36 111 30 62 63 135 73 162 14 37 24 51 41 53 31 5 28 13
-14 40 l-37 24 6 -24z"/>
<path d="M5118 3889 c-24 -13 -23 -29 1 -29 19 0 59 -35 94 -81 l18 -24 -15
25 c-9 13 -16 28 -16 32 0 4 81 -52 181 -123 99 -72 182 -129 184 -127 3 3
-124 186 -166 238 -32 40 -10 0 39 -68 24 -35 42 -66 39 -69 -3 -3 -77 50
-165 116 -87 67 -163 121 -168 121 -5 0 -17 -5 -26 -11z"/>
<path d="M1710 3850 c15 -28 -1 -53 -82 -128 -37 -35 -68 -69 -68 -75 0 -6 39
28 88 76 57 57 95 87 110 87 32 0 27 15 -14 39 -44 26 -47 26 -34 1z"/>
<path d="M1810 3800 c13 -24 17 -14 -103 -215 -102 -169 -111 -183 -138 -187
-11 -2 -20 -7 -20 -13 1 -9 136 -93 153 -94 3 -1 21 22 38 51 l32 52 -36 -32
c-20 -18 -43 -32 -50 -32 -19 0 -66 39 -66 55 0 8 25 53 55 100 50 76 58 84
75 75 22 -12 26 -41 9 -72 -6 -11 -9 -22 -6 -24 3 -3 19 21 37 53 18 32 40 69
48 83 15 24 14 24 -12 -2 -30 -31 -57 -36 -76 -13 -10 12 -1 30 44 100 31 47
59 85 61 85 9 0 50 -25 57 -35 4 -5 5 -25 2 -42 -4 -18 -4 -33 -1 -33 6 0 47
64 47 73 0 8 -136 87 -150 87 -8 0 -8 -6 0 -20z"/>
<path d="M5040 3814 c0 -22 32 -104 39 -99 7 3 72 -72 124 -142 6 -8 -2 -17
-23 -28 -18 -9 -34 -15 -36 -12 -2 2 -10 21 -18 43 -8 21 -15 34 -15 27 -1 -6
15 -55 36 -110 21 -58 36 -116 36 -141 0 -24 2 -41 6 -40 3 2 18 10 34 18 27
13 32 34 9 36 -7 1 -16 2 -20 3 -10 1 -27 35 -48 93 -13 37 -12 37 20 58 18
11 38 20 44 20 7 0 30 -23 52 -52 32 -39 40 -57 35 -76 -3 -13 -2 -22 2 -20 4
3 23 11 41 18 17 8 32 19 32 25 0 5 16 21 35 34 41 28 44 41 11 41 -22 0 -48
24 -84 76 -7 11 -6 5 3 -13 8 -17 20 -35 26 -38 9 -6 11 -69 2 -88 -6 -11 -42
12 -73 46 -15 18 -78 95 -140 172 -132 164 -130 162 -130 149z"/>
<path d="M1999 3708 c12 -31 0 -58 -90 -211 -104 -177 -119 -199 -140 -204
-28 -8 -23 -17 16 -36 46 -22 47 -22 39 8 -5 18 6 45 41 105 71 122 87 107 56
-54 -12 -59 -21 -111 -21 -115 0 -4 12 -13 26 -20 24 -10 26 -10 18 6 -10 25
-9 55 9 144 18 93 29 115 61 123 15 4 42 29 65 63 34 46 41 64 41 102 0 46 0
46 -57 76 -76 40 -74 40 -64 13z m73 -45 c10 -9 18 -30 18 -48 0 -37 -48 -115
-87 -140 -23 -15 -29 -16 -53 -4 l-28 14 56 97 c32 53 61 97 66 98 5 0 18 -7
28 -17z"/>
<path d="M5290 3666 c19 -26 39 -50 44 -54 5 -3 -6 16 -24 42 -19 26 -39 50
-44 54 -5 3 6 -16 24 -42z"/>
<path d="M4745 3664 c-66 -28 -88 -44 -63 -44 23 0 37 -27 111 -213 67 -168
77 -213 55 -235 -20 -20 5 -15 92 19 89 34 89 34 60 114 l-18 50 5 -55 c4 -45
2 -58 -13 -71 -28 -25 -59 -31 -72 -16 -19 22 -83 197 -77 207 7 12 55 13 55
3 0 -5 9 -19 20 -33 17 -21 15 -10 -10 60 -36 98 -43 110 -34 53 5 -35 3 -43
-17 -57 -13 -9 -26 -12 -30 -8 -8 9 -79 181 -79 191 0 9 46 31 65 31 7 0 27
-14 44 -30 l30 -31 -16 46 c-11 27 -23 45 -33 45 -8 -1 -42 -12 -75 -26z"/>
<path d="M2161 3595 c-54 -62 -68 -189 -25 -236 28 -31 27 -147 -2 -186 -25
-33 -43 -38 -69 -19 -16 11 -19 25 -18 87 l1 74 -19 -67 -19 -66 27 -31 c15
-17 37 -31 49 -31 26 0 78 56 100 108 24 56 15 147 -19 196 -31 45 -34 79 -11
136 28 69 74 76 94 14 9 -25 9 -43 1 -66 -6 -17 -11 -40 -10 -52 0 -12 11 13
25 54 27 85 28 94 13 85 -6 -4 -17 2 -25 14 -22 31 -57 26 -93 -14z"/>
<path d="M4542 3600 c-35 -21 -36 -29 -33 -160 2 -105 50 -225 118 -300 28
-32 42 -40 70 -40 30 0 36 5 49 36 8 20 13 41 10 47 -2 7 -5 5 -5 -4 -1 -22
-33 -49 -59 -49 -39 0 -103 108 -141 240 -27 92 -26 196 2 214 28 18 68 -12
101 -77 16 -32 30 -56 32 -54 2 1 -11 40 -28 85 -18 45 -35 77 -39 71 -4 -8
-12 -8 -26 -1 -15 8 -27 6 -51 -8z"/>
<path d="M2332 3553 c9 -24 1 -57 -47 -208 -64 -201 -79 -235 -100 -235 -30 0
-14 -17 26 -29 46 -14 60 -8 38 15 -14 13 -11 27 22 127 21 62 49 151 64 199
24 84 48 124 65 113 5 -3 11 -1 14 4 5 8 -62 41 -83 41 -5 0 -5 -12 1 -27z"/>
<path d="M4403 3559 c-37 -11 -42 -25 -13 -34 11 -4 27 -18 35 -33 l14 -27 1
37 c0 20 5 40 10 43 14 9 12 25 -2 24 -7 0 -28 -5 -45 -10z"/>
<path d="M2442 3517 c-7 -25 -14 -53 -17 -63 -3 -11 2 -4 12 15 25 47 54 65
77 48 16 -12 13 -26 -42 -222 -49 -175 -62 -212 -81 -221 -12 -6 -23 -15 -24
-19 -2 -6 71 -34 91 -35 1 0 2 7 2 15 0 8 -4 15 -10 15 -18 0 -10 43 34 190
24 80 49 169 56 198 19 83 54 84 68 2 l7 -43 17 52 c12 38 13 53 5 56 -7 2
-45 14 -86 25 -40 12 -79 24 -86 26 -8 3 -16 -11 -23 -39z"/>
<path d="M4238 3513 c-23 -6 -23 -19 1 -35 22 -16 46 -61 56 -106 4 -18 9 -31
12 -29 2 3 0 21 -5 41 -6 20 -7 36 -4 36 4 0 60 -81 126 -181 65 -99 120 -178
122 -176 9 9 -27 106 -49 132 -15 17 -71 95 -124 174 -54 80 -102 145 -108
146 -5 2 -18 1 -27 -2z"/>
<path d="M4092 3490 c-40 -9 -76 -20 -80 -24 -5 -6 6 -18 29 -28 3 -2 26 -86
53 -188 26 -102 52 -198 58 -214 10 -24 9 -31 -7 -42 -10 -8 -17 -16 -14 -18
3 -3 174 33 187 39 1 1 -4 31 -12 66 -14 62 -14 63 -15 21 -1 -57 -14 -79 -51
-87 -44 -10 -56 5 -75 93 -9 42 -19 87 -22 100 -4 19 -1 22 25 22 19 0 35 -7
41 -17 12 -21 6 23 -15 97 l-12 45 -1 -43 c-1 -35 -5 -44 -23 -51 -13 -5 -26
-6 -29 -2 -4 3 -16 49 -27 101 -20 88 -20 96 -5 108 27 20 49 14 79 -20 l27
-33 -6 34 c-4 18 -7 40 -7 47 0 17 -6 17 -98 -6z"/>
<path d="M2667 3483 c-3 -3 0 -15 7 -27 9 -14 16 -73 20 -171 5 -128 3 -160
-13 -220 -15 -56 -23 -71 -40 -73 -11 -2 -21 -7 -21 -12 0 -9 100 -33 107 -26
3 2 -3 15 -12 29 -15 23 -14 32 3 118 14 73 17 113 11 179 -13 151 -12 167 14
174 18 5 19 8 7 15 -21 11 -76 21 -83 14z"/>
<path d="M2810 3453 c0 -2 5 -12 12 -23 10 -16 7 -32 -19 -95 -38 -93 -33 -99
8 -7 17 37 42 79 55 93 l26 27 -41 4 c-23 2 -41 2 -41 1z"/>
<path d="M3940 3448 c-66 -17 -66 -17 -38 -41 21 -18 29 -37 38 -97 15 -94 56
-300 65 -321 4 -11 -2 -25 -17 -39 l-23 -23 40 7 c22 3 48 6 58 6 9 0 17 5 17
10 0 6 -7 10 -15 10 -29 0 -46 51 -79 241 -31 174 -33 196 -19 217 20 33 13
40 -27 30z"/>
<path d="M3061 3405 c-53 -45 -74 -121 -75 -265 -1 -154 17 -221 66 -241 45
-18 76 3 113 76 29 58 30 64 30 205 0 123 -3 150 -19 180 -41 77 -65 86 -115
45z m86 -34 c21 -30 23 -46 23 -146 0 -165 -31 -298 -73 -309 -27 -7 -67 34
-77 79 -27 114 3 340 51 391 29 31 47 28 76 -15z"/>
<path d="M3726 3384 c-23 -34 -26 -49 -26 -123 0 -113 25 -233 62 -292 47 -77
102 -100 132 -57 23 32 20 39 -11 23 -33 -17 -56 -6 -91 45 -58 86 -92 318
-55 381 22 37 38 42 68 23 23 -15 55 -79 55 -111 0 -9 3 -14 6 -10 5 5 -5 65
-22 127 -2 9 -12 16 -21 17 -10 1 -30 5 -44 8 -23 6 -31 2 -53 -31z"/>
<path d="M3200 3400 c0 -5 3 -10 8 -10 21 0 30 -68 30 -240 1 -165 -1 -189
-18 -217 l-19 -33 44 0 c44 0 60 12 30 24 -12 4 -15 27 -15 116 0 109 0 110
24 110 28 0 42 -15 49 -50 2 -14 4 13 4 60 0 47 -2 74 -4 60 -7 -35 -22 -50
-50 -50 l-24 0 3 113 3 112 32 3 c33 3 44 -8 70 -73 11 -29 12 -27 12 28 l1
57 -90 0 c-53 0 -90 -4 -90 -10z"/>
<path d="M3550 3390 c-11 -11 -20 -32 -21 -47 -5 -126 13 -179 76 -222 45 -31
75 -79 85 -141 l8 -45 1 60 c2 105 -22 154 -93 190 -11 6 -30 30 -44 55 -27
52 -25 116 4 137 15 11 21 10 41 -8 12 -12 29 -40 37 -63 l14 -41 1 68 c1 60
-10 88 -22 55 -3 -10 -9 -8 -24 5 -25 22 -38 22 -63 -3z"/>
<path d="M4471 3330 c0 -8 4 -24 9 -35 5 -13 9 -14 9 -5 0 8 -4 24 -9 35 -5
13 -9 14 -9 5z"/>
<path d="M4491 3254 c0 -11 3 -14 6 -6 3 7 2 16 -1 19 -3 4 -6 -2 -5 -13z"/>
<path d="M4366 3097 c4 -31 2 -52 -6 -62 -18 -22 -8 -27 34 -20 41 8 45 19 14
45 -12 9 -28 33 -35 51 -12 34 -12 34 -7 -14z"/>
<path d="M3556 2985 c8 -72 14 -91 27 -93 7 -1 27 -5 46 -8 27 -5 37 -3 48 12
22 30 15 39 -11 15 -39 -37 -71 -10 -103 84 l-13 40 6 -50z"/>
<path d="M6604 1983 c-26 -71 -28 -72 -99 -70 -35 1 -67 -1 -71 -6 -4 -4 9
-24 29 -45 43 -44 44 -50 16 -86 -14 -17 -30 -26 -49 -26 -25 0 -35 9 -65 55
-42 67 -151 142 -173 120 -7 -7 -6 -9 60 -94 48 -62 86 -146 74 -159 -4 -4
-17 6 -28 21 -37 51 -118 77 -118 38 0 -10 8 -25 17 -32 9 -8 39 -61 66 -119
27 -58 55 -108 61 -112 27 -18 36 -7 36 42 0 56 9 61 48 25 29 -27 63 -32 80
-12 8 9 5 28 -10 67 -11 30 -22 71 -25 90 -4 32 -1 37 38 63 24 15 49 27 56
27 17 0 16 -29 -2 -60 -8 -14 -14 -51 -15 -82 l0 -57 42 -11 c123 -34 214 71
159 182 l-20 41 29 27 c54 51 160 61 160 16 0 -30 -60 -150 -106 -214 -42 -57
-109 -97 -326 -192 -94 -41 -116 -61 -82 -74 33 -13 67 -5 147 35 45 23 84 45
87 49 10 14 49 30 75 30 23 0 25 -3 20 -22 -18 -61 -73 -134 -125 -170 -54
-36 -307 -174 -427 -232 -35 -17 -63 -34 -63 -37 0 -17 48 -64 84 -80 64 -29
103 -25 134 13 110 133 252 251 281 234 17 -11 23 -101 16 -244 -7 -143 -8
-144 -34 -154 -14 -6 -34 -14 -43 -19 -10 -5 -43 -9 -73 -9 -30 0 -55 -4 -55
-8 0 -4 26 -15 58 -24 31 -9 86 -26 122 -36 36 -11 71 -21 78 -23 8 -2 23 8
35 23 23 31 24 33 12 345 -9 233 -7 243 46 243 23 0 29 -4 29 -22 0 -13 3 -33
6 -45 6 -21 8 -22 33 -9 14 8 52 26 83 41 51 23 56 28 49 48 -14 39 -68 67
-127 67 -88 0 -83 28 18 101 34 25 64 53 66 62 2 9 -15 33 -39 56 l-42 39 21
30 c25 34 89 77 177 119 70 33 86 61 65 114 -21 49 -67 97 -100 104 -44 10
-125 -18 -218 -75 -114 -68 -144 -68 -76 1 34 35 35 38 23 65 -14 29 -72 74
-95 74 -7 0 -20 -21 -30 -47z m74 -310 c3 -37 0 -43 -17 -43 -38 0 -51 11 -51
44 0 40 7 48 40 44 22 -3 25 -8 28 -45z"/>
<path d="M475 1990 c-8 -12 15 -59 76 -154 38 -60 47 -81 37 -87 -7 -5 -80 -9
-161 -9 -122 0 -149 -3 -153 -15 -9 -23 23 -65 63 -82 34 -14 43 -13 137 11
99 25 157 32 168 20 4 -3 -1 -19 -10 -35 -14 -25 -22 -29 -44 -25 -49 10 -55
1 -47 -61 4 -31 6 -61 3 -65 -3 -5 -18 -1 -34 9 -24 14 -31 14 -44 4 -13 -11
-25 -6 -77 33 -72 54 -103 60 -93 19 4 -16 11 -38 15 -51 15 -41 11 -73 -11
-79 -31 -8 -23 -25 31 -66 60 -45 74 -43 135 20 54 55 78 54 82 -1 2 -21 0
-42 -5 -47 -12 -12 -206 -69 -268 -80 -27 -4 -84 -15 -125 -23 -41 -8 -90 -15
-107 -15 -28 -1 -33 -5 -33 -24 0 -27 20 -47 72 -71 31 -13 45 -15 85 -6 58
14 131 45 158 69 26 23 176 81 209 81 15 0 26 -6 26 -14 0 -24 -39 -64 -70
-71 -62 -14 -290 -188 -290 -222 0 -19 48 -35 84 -27 17 3 72 21 121 39 50 18
104 36 120 39 l31 7 -4 -90 c-4 -103 13 -260 31 -278 10 -10 17 -10 36 3 42
30 54 78 61 247 8 181 3 171 110 206 37 12 75 30 84 40 17 18 16 20 -16 43
-18 14 -50 35 -70 47 -21 13 -38 26 -38 30 0 12 82 54 199 102 l103 42 -6 35
c-12 76 -60 83 -165 25 -38 -21 -73 -35 -77 -31 -11 11 49 97 76 108 14 6 38
22 54 34 l29 24 -24 22 c-13 12 -42 35 -64 52 l-40 30 -17 -39 c-10 -21 -18
-48 -18 -61 0 -14 -11 -29 -32 -42 -42 -25 -56 -25 -92 5 -26 21 -28 27 -19
47 20 44 63 87 96 94 17 3 62 20 98 36 68 30 89 54 89 102 0 33 -85 126 -115
126 -23 0 -75 -50 -75 -73 0 -7 -13 -40 -30 -74 -30 -64 -30 -64 -87 -63 -5 0
-6 37 -4 81 4 90 -4 106 -71 140 -41 21 -73 24 -83 9z m381 -152 c5 -16 1 -27
-16 -40 -25 -20 -29 -21 -49 -9 -11 7 -10 14 5 40 21 36 50 40 60 9z m-110
-318 c25 -10 26 -14 21 -57 -3 -33 -12 -53 -28 -66 -37 -29 -54 -19 -57 37 -6
91 6 108 64 86z m114 -150 c-26 -48 -165 -97 -177 -62 -5 12 25 28 122 63 64
23 68 23 55 -1z m-136 -171 c20 -34 12 -53 -20 -47 -19 3 -30 38 -20 64 8 22
20 17 40 -17z m-164 -74 c0 -28 -22 -42 -128 -81 -43 -17 -68 -22 -75 -15 -14
14 6 31 93 79 88 49 110 52 110 17z"/>
<path d="M2750 1936 c0 -8 -44 -45 -97 -82 -197 -140 -279 -251 -115 -157 59
33 158 70 215 78 39 6 50 12 58 33 14 38 1 110 -24 127 -27 19 -37 19 -37 1z"/>
<path d="M4326 1912 c-3 -15 -8 -48 -12 -73 -11 -85 -21 -94 -251 -243 -18
-12 -33 -24 -33 -28 0 -12 70 -30 93 -24 13 3 41 21 64 41 45 38 67 45 59 18
-3 -10 -10 -38 -16 -63 -7 -25 -18 -57 -26 -72 -11 -21 -12 -32 -2 -53 11 -24
15 -25 56 -19 43 6 44 6 37 -17 -12 -39 -35 -79 -45 -79 -5 0 -24 9 -42 19
-18 10 -44 22 -56 26 -22 6 -23 5 -17 -17 4 -12 20 -45 37 -73 l30 -50 -27
-50 c-41 -75 -164 -172 -201 -158 -16 6 -17 23 -10 207 11 347 25 409 103 483
48 45 53 54 43 72 -6 12 -17 21 -25 21 -8 0 -15 9 -15 19 0 23 -76 91 -101 91
-27 0 -37 -22 -48 -104 -10 -86 -13 -90 -101 -132 -69 -33 -67 -30 -44 -55 26
-29 70 -50 88 -43 19 7 20 -10 4 -74 -7 -32 -28 -67 -63 -107 -28 -33 -69 -84
-90 -112 -22 -29 -65 -71 -97 -94 -32 -22 -58 -44 -58 -48 0 -10 29 -35 59
-51 18 -9 29 -9 45 0 28 15 105 118 151 203 36 65 65 91 51 45 -4 -13 -11 -90
-16 -173 -5 -82 -9 -151 -9 -152 -1 -2 -32 -3 -71 -3 -70 0 -94 -13 -42 -23
15 -3 38 -15 51 -26 13 -12 28 -21 32 -21 5 0 25 -14 45 -32 l36 -32 27 30
c14 17 31 39 37 50 11 18 12 19 32 1 18 -16 26 -17 54 -8 41 13 117 74 181
144 l47 52 63 -68 c72 -77 83 -80 193 -46 81 25 184 75 184 89 0 6 -24 10 -52
10 -110 0 -173 17 -243 66 -77 54 -80 66 -30 148 52 86 45 138 -20 150 -34 7
-35 9 -35 50 0 78 77 204 148 240 40 21 41 39 2 68 -16 12 -30 27 -30 34 0 7
-19 23 -42 36 -69 40 -76 40 -82 10z"/>
<path d="M1577 1872 c-34 -35 -34 -61 -2 -156 16 -49 25 -97 25 -138 l0 -63
-66 -57 c-36 -32 -71 -58 -79 -58 -8 0 -22 27 -35 64 -11 35 -30 72 -41 82
-20 18 -21 18 -35 0 -16 -22 -60 -154 -69 -207 -4 -22 -2 -46 5 -58 15 -30 69
-61 103 -61 30 0 36 5 130 113 32 37 65 67 73 67 12 0 13 -28 8 -197 -3 -109
-10 -214 -15 -233 -5 -19 -9 -70 -9 -113 0 -76 1 -80 37 -123 42 -50 60 -54
86 -18 20 26 20 105 1 436 -7 124 0 143 53 153 45 8 138 48 158 69 22 21 18
37 -12 62 -26 20 -26 23 -15 62 16 52 59 95 133 133 70 35 87 70 49 101 -30
24 -111 24 -148 0 -92 -63 -172 -112 -182 -112 -10 0 -11 25 -6 109 l7 109
-38 31 c-47 39 -81 40 -116 3z m263 -307 c0 -12 -7 -25 -15 -29 -9 -3 -15 -18
-15 -39 0 -19 -10 -49 -23 -68 -23 -34 -70 -59 -84 -45 -4 4 -7 33 -8 66 0 67
19 95 88 129 46 23 57 20 57 -14z"/>
<path d="M3034 1865 c-3 -14 -3 -40 1 -58 5 -17 10 -128 12 -246 l4 -214 -27
-28 c-14 -15 -35 -30 -46 -32 -17 -5 -19 -2 -13 16 11 36 5 80 -17 126 -19 40
-20 49 -9 106 19 107 16 128 -29 174 -41 43 -83 54 -94 26 -7 -21 1 -41 41
-101 l35 -52 4 -161 c4 -131 2 -166 -11 -190 -8 -17 -15 -41 -15 -56 0 -22 4
-25 36 -25 28 0 46 9 81 40 25 22 50 40 56 40 7 0 8 -54 2 -162 -9 -194 -7
-270 6 -321 10 -37 11 -38 32 -24 53 35 59 61 67 315 5 130 12 252 15 269 5
22 24 47 60 77 61 53 85 97 64 122 -7 9 -21 33 -30 53 -11 22 -18 29 -18 18
-2 -43 -62 -129 -79 -113 -11 11 -4 103 13 185 35 167 4 241 -99 241 -30 0
-37 -4 -42 -25z"/>
<path d="M5353 1858 c-5 -8 -6 -66 -2 -143 7 -115 3 -197 -17 -323 -3 -17 -15
-42 -27 -53 -35 -34 -235 -127 -288 -134 -26 -4 -56 -13 -66 -20 -17 -13 -15
-16 24 -53 23 -22 62 -48 87 -57 l45 -17 80 66 c43 36 82 66 85 66 3 0 6 -10
6 -22 -1 -86 -123 -210 -275 -278 -36 -16 -65 -34 -65 -39 0 -12 127 -4 190
11 49 13 58 19 143 98 75 69 99 112 146 250 l37 112 65 38 c35 22 99 57 142
80 44 23 77 47 77 55 0 21 -62 49 -93 41 -14 -3 -45 -22 -68 -42 -49 -41 -86
-60 -96 -51 -9 10 15 193 31 231 20 47 1 85 -71 137 -32 24 -59 47 -61 52 -5
11 -18 9 -29 -5z"/>
<path d="M2647 1643 c-4 -3 -7 -14 -7 -23 0 -51 -113 -145 -299 -249 -34 -19
-61 -38 -61 -43 0 -14 66 -38 103 -38 28 0 48 13 116 75 46 41 87 75 92 75 5
0 9 -54 9 -119 0 -99 -3 -120 -16 -125 -24 -9 -24 -9 -24 30 0 46 -13 42 -68
-25 -41 -51 -43 -55 -40 -114 4 -80 23 -86 78 -27 43 47 62 48 70 4 6 -33 44
-56 78 -48 20 6 21 10 15 98 l-5 91 47 65 c27 36 52 67 56 70 12 8 49 94 43
99 -3 3 -17 -10 -32 -29 -40 -52 -79 -90 -93 -90 -21 0 -3 90 35 174 l36 79
-39 38 c-37 36 -77 50 -94 32z"/>
<path d="M5474 1245 c-4 -8 -2 -21 3 -28 5 -6 18 -34 28 -62 36 -98 114 -250
134 -262 21 -13 76 -8 97 9 6 4 44 19 84 33 40 14 79 30 86 36 25 20 -3 39
-57 39 -60 0 -164 40 -202 78 -28 27 -66 70 -122 137 -33 39 -43 43 -51 20z"/>
<path d="M3473 442 c-7 -4 -14 -18 -16 -31 -2 -12 -10 -27 -18 -32 -12 -8 -11
-11 3 -19 13 -8 16 -24 15 -77 -1 -91 17 -87 21 5 2 55 6 72 17 72 8 0 15 5
15 10 0 6 -7 10 -15 10 -8 0 -15 9 -15 19 0 10 7 21 15 25 8 3 15 10 15 16 0
12 -20 13 -37 2z"/>
<path d="M3667 439 c-52 -30 -36 -102 25 -114 65 -13 88 -26 88 -51 0 -50
-102 -56 -120 -8 -11 29 -30 32 -30 5 0 -42 53 -68 115 -57 43 8 70 45 61 81
-7 27 -20 35 -96 57 -52 15 -63 39 -27 63 28 18 71 7 93 -23 15 -21 28 -11 20
16 -12 36 -89 54 -129 31z"/>
<path d="M168 333 c3 -113 22 -172 22 -70 l0 57 65 0 65 0 0 -55 c0 -44 3 -53
15 -49 22 9 22 224 0 224 -11 0 -15 -12 -15 -45 l0 -45 -65 0 -65 0 0 45 c0
29 -4 45 -12 45 -10 0 -12 -26 -10 -107z"/>
<path d="M922 328 c3 -119 21 -153 26 -51 4 67 15 85 51 81 25 -3 26 -7 31
-71 3 -37 10 -68 15 -70 11 -2 19 95 10 130 -8 33 -51 48 -81 28 -24 -15 -24
-15 -24 25 0 29 -4 40 -15 40 -13 0 -15 -17 -13 -112z"/>
<path d="M1758 345 c3 -89 5 -96 30 -116 33 -26 94 -21 126 11 18 17 22 35 24
110 3 76 2 90 -12 90 -12 0 -16 -16 -18 -86 -3 -82 -5 -88 -31 -108 -26 -19
-30 -19 -55 -5 -26 14 -27 18 -30 107 -2 79 -5 92 -20 92 -15 0 -17 -11 -14
-95z"/>
<path d="M2170 424 c0 -9 5 -14 12 -12 18 6 21 28 4 28 -9 0 -16 -7 -16 -16z"/>
<path d="M2852 429 c2 -6 8 -10 13 -10 5 0 11 4 13 10 2 6 -4 11 -13 11 -9 0
-15 -5 -13 -11z"/>
<path d="M4012 429 c2 -6 8 -10 13 -10 5 0 11 4 13 10 2 6 -4 11 -13 11 -9 0
-15 -5 -13 -11z"/>
<path d="M5460 405 c0 -38 -2 -40 -30 -25 -28 15 -65 -3 -80 -40 -29 -69 27
-148 87 -121 14 7 24 7 28 0 17 -26 25 12 25 112 0 90 -3 109 -15 109 -10 0
-15 -11 -15 -35z m-12 -57 c7 -7 12 -31 12 -55 0 -41 -17 -63 -49 -63 -21 0
-41 33 -41 69 0 42 14 61 45 61 12 0 26 -5 33 -12z"/>
<path d="M5610 430 c0 -5 18 -10 40 -10 l39 0 3 -100 c4 -132 22 -132 26 0 l3
100 34 0 c19 0 35 5 35 10 0 6 -37 10 -90 10 -53 0 -90 -4 -90 -10z"/>
<path d="M6170 324 c0 -120 14 -149 22 -43 5 63 15 79 54 79 28 0 34 -17 34
-91 0 -38 4 -58 10 -54 6 3 10 37 10 75 0 63 -2 71 -25 86 -21 14 -31 15 -51
5 -34 -15 -34 -15 -34 24 0 19 -4 35 -10 35 -6 0 -10 -45 -10 -116z"/>
<path d="M6722 328 c2 -67 7 -113 13 -113 6 0 11 46 13 113 2 96 0 112 -13
112 -13 0 -15 -16 -13 -112z"/>
<path d="M2920 406 c0 -13 -6 -27 -12 -30 -10 -5 -10 -7 0 -12 8 -4 12 -28 12
-70 0 -58 2 -66 23 -73 27 -11 46 -2 23 11 -22 13 -24 128 -1 128 8 0 15 5 15
10 0 6 -7 10 -15 10 -9 0 -15 9 -15 25 0 16 -6 25 -15 25 -9 0 -15 -9 -15 -24z"/>
<path d="M612 380 c-22 -9 -39 -36 -29 -46 3 -3 15 4 26 15 25 25 31 26 56 7
28 -20 12 -46 -29 -46 -41 0 -66 -22 -66 -56 0 -33 40 -52 76 -36 18 9 31 9
45 1 24 -13 38 -4 21 13 -7 7 -12 40 -12 75 0 59 -2 64 -26 73 -30 12 -32 12
-62 0z m66 -107 c-4 -37 -50 -55 -75 -30 -21 20 -4 44 35 50 15 2 31 5 35 6 5
0 7 -11 5 -26z"/>
<path d="M1143 380 c-79 -32 -43 -183 39 -166 42 8 56 22 64 62 8 44 -10 88
-42 103 -29 13 -31 13 -61 1z m65 -32 c28 -28 6 -118 -29 -118 -45 0 -72 64
-45 105 18 27 54 33 74 13z"/>
<path d="M1347 379 c-9 -6 -27 -7 -38 -4 -19 6 -20 3 -17 -77 3 -95 21 -109
26 -21 4 67 15 85 51 81 25 -3 26 -7 31 -71 6 -87 25 -83 25 5 0 37 -4 71 -10
76 -17 17 -49 22 -68 11z"/>
<path d="M1513 380 c-49 -20 -60 -104 -18 -145 26 -27 46 -31 76 -15 22 12 25
0 9 -31 -12 -21 -59 -26 -78 -7 -17 17 -28 2 -12 -17 18 -21 83 -19 103 3 13
15 17 39 17 114 0 93 -1 96 -22 95 -13 0 -30 2 -38 6 -8 3 -25 2 -37 -3z m67
-39 c16 -31 12 -76 -10 -96 -17 -15 -24 -16 -45 -7 -21 10 -25 18 -25 55 0 24
5 48 12 55 18 18 56 14 68 -7z"/>
<path d="M2040 380 c-8 -5 -25 -7 -38 -3 -23 5 -23 5 -20 -78 3 -96 21 -111
26 -22 4 67 15 85 51 81 25 -3 26 -7 31 -71 3 -37 10 -67 15 -67 16 0 18 122
3 142 -17 21 -49 30 -68 18z"/>
<path d="M2439 379 c-48 -18 -65 -97 -30 -140 25 -31 93 -33 115 -4 22 30 7
40 -20 14 -20 -19 -29 -21 -52 -13 -16 6 -28 18 -30 32 -3 21 0 22 57 22 58 0
61 1 61 24 0 49 -52 83 -101 65z m59 -31 c25 -25 13 -38 -33 -38 -30 0 -45 4
-45 13 0 19 21 37 45 37 12 0 26 -5 33 -12z"/>
<path d="M2632 374 c-13 -9 -22 -11 -22 -5 0 6 -4 11 -10 11 -6 0 -10 -35 -10
-85 0 -50 4 -85 10 -85 6 0 10 26 10 58 0 59 18 92 48 92 7 0 12 4 12 9 0 18
-17 20 -38 5z"/>
<path d="M2713 380 c-24 -10 -37 -39 -28 -63 4 -8 26 -20 50 -26 50 -12 62
-25 45 -46 -18 -22 -57 -18 -74 7 -18 25 -36 16 -20 -10 31 -49 116 -34 122
21 3 28 -11 39 -70 51 -19 5 -28 13 -28 26 0 25 45 28 71 4 20 -18 33 -4 16
19 -15 20 -56 29 -84 17z"/>
<path d="M3303 380 c-30 -12 -45 -44 -41 -92 6 -84 103 -106 134 -31 32 75
-25 150 -93 123z m65 -32 c29 -29 3 -118 -35 -118 -40 0 -66 67 -43 111 12 22
59 26 78 7z"/>
<path d="M3884 379 c-77 -39 -43 -181 39 -165 30 6 57 29 57 48 0 16 -25 8
-38 -12 -14 -22 -42 -26 -60 -8 -16 16 -16 90 0 106 17 17 57 15 64 -3 6 -16
34 -21 34 -7 0 34 -60 59 -96 41z"/>
<path d="M4123 380 c-38 -15 -56 -73 -39 -126 7 -22 44 -44 75 -44 27 0 66 34
57 49 -6 9 -13 7 -27 -8 -11 -12 -28 -21 -39 -21 -17 0 -50 34 -50 52 0 5 27
8 60 8 60 0 60 0 60 29 0 20 -9 36 -26 50 -29 23 -38 24 -71 11z m65 -32 c26
-26 13 -38 -38 -38 -43 0 -49 2 -43 18 12 32 57 44 81 20z"/>
<path d="M4320 380 c-8 -5 -23 -7 -32 -4 -16 5 -18 -3 -18 -80 0 -51 4 -86 10
-86 6 0 10 22 10 49 0 70 14 101 44 101 33 0 46 -26 46 -95 0 -35 4 -54 10
-50 6 3 10 37 10 75 0 60 -3 71 -22 84 -26 18 -37 19 -58 6z"/>
<path d="M4484 379 c-77 -39 -43 -181 39 -165 18 3 38 14 45 23 26 35 7 46
-23 13 -20 -23 -45 -26 -63 -8 -16 16 -16 90 0 106 17 17 57 15 64 -3 6 -16
34 -21 34 -7 0 34 -60 59 -96 41z"/>
<path d="M4653 380 c-29 -12 -43 -40 -43 -87 0 -51 17 -72 61 -79 29 -5 41 -2
58 15 12 12 19 26 15 32 -4 6 -14 2 -25 -10 -24 -26 -51 -27 -72 -3 -30 33
-21 42 43 42 60 0 60 0 60 29 0 20 -9 36 -26 50 -29 23 -38 24 -71 11z m65
-32 c26 -26 13 -38 -38 -38 -52 0 -60 8 -34 34 18 19 55 21 72 4z"/>
<path d="M5012 380 c-23 -10 -39 -36 -28 -47 3 -4 15 3 26 15 22 24 37 27 58
13 27 -16 9 -45 -31 -52 -50 -8 -72 -30 -63 -63 8 -31 40 -41 80 -26 21 8 32
7 43 -1 10 -9 17 -9 25 -1 9 9 9 12 0 12 -8 0 -12 21 -12 64 0 39 -5 68 -13
74 -19 16 -60 22 -85 12z m68 -105 c0 -17 -8 -29 -24 -37 -33 -15 -58 -4 -54
24 3 21 17 28 71 37 4 0 7 -10 7 -24z"/>
<path d="M5220 380 c-8 -5 -23 -7 -32 -4 -16 5 -18 -3 -18 -81 0 -55 4 -84 10
-80 6 3 10 30 10 59 0 62 16 89 51 84 22 -3 24 -8 29 -71 3 -37 10 -67 15 -67
16 0 18 122 3 142 -17 21 -49 30 -68 18z"/>
<path d="M5865 380 c-45 -18 -63 -72 -41 -124 12 -28 22 -36 50 -42 40 -7 86
15 86 41 0 21 -14 19 -35 -5 -23 -25 -47 -26 -68 -2 -30 33 -21 42 43 42 60 0
60 0 60 29 0 20 -9 36 -26 50 -29 23 -38 24 -69 11z m65 -39 c15 -30 14 -31
-40 -31 -52 0 -60 8 -34 34 21 22 61 20 74 -3z"/>
<path d="M6043 380 c-28 -12 -43 -40 -43 -85 0 -50 14 -72 50 -80 35 -8 80 15
80 40 0 21 -13 19 -28 -5 -16 -26 -47 -25 -66 2 -31 44 -7 108 40 108 13 0 27
-7 30 -15 8 -19 24 -20 24 -1 0 16 -37 46 -55 45 -5 0 -20 -4 -32 -9z"/>
<path d="M6410 380 c-8 -5 -25 -7 -37 -3 -22 5 -23 3 -23 -76 0 -65 3 -81 15
-81 12 0 15 13 15 59 0 64 13 85 52 79 21 -3 23 -9 28 -71 3 -37 10 -67 15
-67 16 0 18 122 3 142 -17 21 -49 30 -68 18z"/>
<path d="M6573 380 c-79 -32 -43 -182 40 -166 58 11 83 69 56 130 -7 14 -25
30 -42 36 -16 5 -30 10 -31 9 -1 0 -11 -4 -23 -9z m65 -32 c28 -28 6 -118 -29
-118 -45 0 -72 64 -45 105 18 27 54 33 74 13z"/>
<path d="M6840 383 c-76 -28 -76 -151 1 -168 49 -11 83 20 87 77 4 63 -40 108
-88 91z m64 -54 c13 -37 0 -78 -29 -91 -48 -22 -84 47 -54 103 16 31 71 22 83
-12z"/>
<path d="M7020 383 c-35 -13 -50 -37 -50 -80 0 -61 36 -98 85 -89 33 7 34 6
26 -16 -9 -25 -56 -37 -74 -19 -6 6 -18 11 -26 11 -11 0 -10 -4 4 -20 24 -26
86 -27 108 -2 13 15 17 39 17 114 0 93 -1 96 -22 95 -13 0 -30 2 -38 6 -8 3
-22 3 -30 0z m64 -65 c7 -29 6 -42 -8 -62 -31 -48 -77 -26 -79 38 -1 43 19 68
52 64 21 -2 28 -11 35 -40z"/>
<path d="M390 315 c0 -52 4 -69 20 -85 22 -22 42 -25 70 -10 13 7 21 7 25 0
15 -25 25 7 25 81 0 64 -3 79 -15 79 -12 0 -15 -13 -15 -59 0 -41 -5 -65 -16
-75 -38 -39 -64 -10 -64 71 0 49 -3 63 -15 63 -12 0 -15 -14 -15 -65z"/>
<path d="M760 370 c0 -5 20 -10 45 -10 l45 0 -51 -65 c-28 -36 -49 -68 -46
-72 8 -7 126 -7 134 1 4 3 -17 6 -45 6 -29 0 -52 3 -52 6 0 4 20 32 45 62 61
73 59 82 -15 82 -33 0 -60 -4 -60 -10z"/>
<path d="M2172 298 c4 -105 23 -107 23 -1 0 53 -4 78 -13 81 -10 3 -12 -15
-10 -80z"/>
<path d="M2251 298 c17 -45 31 -84 33 -85 10 -10 37 33 59 95 21 56 23 72 13
72 -9 0 -23 -27 -36 -66 -12 -36 -26 -62 -30 -57 -4 4 -15 34 -24 66 -10 35
-22 57 -31 57 -11 0 -8 -18 16 -82z"/>
<path d="M2850 301 c0 -44 5 -83 10 -86 12 -7 11 -11 13 84 1 51 -2 76 -11 79
-9 3 -12 -18 -12 -77z"/>
<path d="M3000 371 c0 -5 12 -42 26 -81 27 -74 26 -120 -1 -120 -8 0 -15 -5
-15 -11 0 -6 10 -9 23 -7 18 2 30 22 64 108 48 118 48 120 29 120 -8 0 -21
-26 -32 -65 -10 -36 -21 -65 -24 -65 -4 0 -15 28 -26 62 -11 34 -25 63 -32 66
-7 2 -12 -1 -12 -7z"/>
<path d="M4012 298 c4 -106 22 -105 26 2 2 67 0 80 -13 80 -13 0 -15 -13 -13
-82z"/>
<path d="M7150 373 c0 -5 11 -43 25 -84 26 -76 26 -119 0 -119 -8 0 -15 -4
-15 -10 0 -23 40 -9 54 19 13 25 76 189 76 198 0 2 -6 3 -14 3 -8 0 -21 -26
-32 -65 -10 -36 -21 -65 -24 -65 -4 0 -15 28 -26 62 -11 34 -25 63 -32 66 -7
2 -12 0 -12 -5z"/>
</g>
</svg>
